<?xml version="1.0" encoding="UTF-8" standalone="no"?>
<!-- Created with Inkscape (http://www.inkscape.org/) -->

<svg
   width="160mm"
   height="142mm"
   viewBox="0 0 160 142"
   version="1.1"
   id="svg5"
   inkscape:version="1.2.2 (b0a8486541, 2022-12-01)"
   sodipodi:docname="jake.svg"
   xmlns:inkscape="http://www.inkscape.org/namespaces/inkscape"
   xmlns:sodipodi="http://sodipodi.sourceforge.net/DTD/sodipodi-0.dtd"
   xmlns="http://www.w3.org/2000/svg"
   xmlns:svg="http://www.w3.org/2000/svg">
  <sodipodi:namedview
     id="namedview7"
     pagecolor="#ffffff"
     bordercolor="#000000"
     borderopacity="0.25"
     inkscape:showpageshadow="2"
     inkscape:pageopacity="0.0"
     inkscape:pagecheckerboard="0"
     inkscape:deskcolor="#d1d1d1"
     inkscape:document-units="mm"
     showgrid="false"
     inkscape:zoom="0.55244701"
     inkscape:cx="363.8358"
     inkscape:cy="527.65241"
     inkscape:window-width="1920"
     inkscape:window-height="1050"
     inkscape:window-x="0"
     inkscape:window-y="0"
     inkscape:window-maximized="1"
     inkscape:current-layer="g338" />
  <defs
     id="defs2" />
  <g
     inkscape:label="Layer 1"
     inkscape:groupmode="layer"
     id="layer1">
    <g
       id="g338"
       transform="translate(-42.617382,77.896568)">
      <path
         id="path171"
         style="fill:#808080;stroke-width:0.199229"
         d="m 43.342274,18.20875 1.747399,-2.40531 c 0.26864,-4.75275 0.304241,-9.51318 0.455645,-14.27019 0.07953,-2.49891 0.183478,-4.997111 0.275195,-7.495613 0.865762,-19.127638 1.456782,-38.266279 2.254178,-57.396542 0.335954,-7.321472 0.157764,-3.934678 0.515046,-10.161841 l -1.426341,1.945906 c -0.153737,5.970915 -0.07656,2.715915 -0.221808,9.764834 -0.109358,4.735358 -0.275448,12.241584 -0.415046,16.773994 -0.417314,13.549084 -1.08913,27.087657 -1.841386,40.621798 C 44.278388,3.1287 43.984082,10.68117 43.342274,18.20875 Z m 4.134662,-20.614661 c 0.732082,-0.248864 1.458022,-0.516721 2.19628,-0.746626 3.215643,-1.001372 5.955326,-1.737969 9.177613,-2.585003 0.44992,5.18078 1.863176,10.28258 3.269235,15.26568 0.01928,0.0478 0.03787,0.0958 0.05714,0.14361 C 61.29202,9.47728 60.407131,9.28136 59.523775,9.07775 58.782463,8.90688 58.047077,8.70957 57.303436,8.54917 57.105094,8.50637 56.904584,8.47627 56.704927,8.44014 c -0.145896,-0.009 -0.345165,-0.1403 -0.437602,-0.0271 -1.873205,2.29463 -1.811907,2.37808 -1.780482,4.60234 0.02095,2.71579 0.0983,5.43061 0.221053,8.14376 0.408884,9.22391 0.855256,18.44842 1.533865,27.6569 0.405557,4.74142 0.705454,9.51272 1.556415,14.201 l 1.688757,-2.45117 c -1.015548,-4.48612 -1.41784,-9.08318 -1.892517,-13.64913 -0.84894,-9.26148 -1.189314,-18.5599 -1.372957,-27.85538 -0.0481,-2.62682 -0.05503,-5.25428 -0.03233,-7.88135 1.293384,0.20623 2.581152,0.49024 3.867742,0.72633 2.420732,0.44421 2.640756,0.48184 3.218854,0.60001 1.313325,3.53621 2.420684,7.14073 3.196299,10.84306 1.071038,2.72077 0.607738,6.91627 2.465463,8.84903 3.443076,-5.03448 5.77889,-10.77305 8.303162,-16.32436 3.207785,0.87593 6.404005,1.79657 9.596418,2.72712 3.79382,1.1518 7.55013,2.42966 11.24532,3.86699 0.0644,0.0271 0.96917,0.38061 1.10829,0.52031 0.21624,0.21711 0.12367,0.79779 0.10978,0.98498 -0.0535,0.72153 -0.19249,1.68751 -0.28272,2.37748 -0.55652,4.21728 -0.99204,8.44938 -1.57596,12.6634 -0.3358,2.13836 -0.25219,1.63301 -0.58423,3.64969 -0.0429,0.26051 -0.0755,0.52301 -0.11503,0.78423 -0.13831,0.04 -0.29435,0.0848 -0.48482,0.13589 -0.41023,-0.10781 -0.84432,-0.14861 -1.23084,-0.3233 -1.25777,-0.5685 -2.83434,-1.76048 -3.85044,-2.60531 -2.07074,-1.72172 -3.80978,-3.63342 -5.56703,-5.658 l -1.406786,2.2647 c 1.787416,1.97752 3.599446,3.91591 5.623406,5.65872 0.91307,0.78627 2.70467,2.22568 3.84895,2.81511 0.41364,0.21306 0.88428,0.29018 1.32634,0.43534 0.33976,-0.0447 0.78874,0.12018 1.01882,-0.13386 0.98459,-1.08665 1.95824,-2.68822 2.29401,-4.22565 0.0979,-0.44811 0.1366,-0.90664 0.20528,-1.36018 0.44246,-2.91969 0.066,-0.40866 0.54137,-3.60306 0.56806,-4.24659 0.996853,-8.51175 1.639123,-12.74836 0.11392,-0.80168 0.47871,-2.43528 0.23008,-3.26021 -0.18307,-0.60739 -0.989203,-0.66577 -1.459433,-0.87595 -3.78165,-1.27414 -7.58769,-2.479 -11.42202,-3.58503 -3.282945,-0.91257 -6.567305,-1.82039 -9.856571,-2.70982 3.846333,-9.03299 7.751661,-18.041142 11.673151,-27.041844 2.542,-0.602994 5.08335,-1.209658 7.6242,-1.817326 2.39608,8.515271 5.682553,16.7851 8.443013,25.18466 4.35687,12.84489 8.78685,25.66607 13.03784,38.54657 1.82484,-1.58716 0.92594,-3.51347 0.0594,-5.43618 -6.72532,-18.67579 -13.20599,-37.44827 -19.113133,-56.399445 -0.25046,-0.765116 -0.48047,-1.536218 -0.69625,-2.310566 8.677243,-2.080313 17.346203,-4.193668 25.992963,-6.398614 4.13024,-1.058474 2.21928,-0.581098 5.72943,-1.443642 l 1.14137,-2.392523 c -3.59259,1.04506 -1.63904,0.474697 -5.85876,1.713568 -9.07081,2.585301 -18.19854,4.958378 -27.357643,7.205387 -0.94872,-3.713878 -1.57758,-7.507075 -2.21884,-11.267874 -2.27272,1.064186 -3.1772,5.39752 -4.47451,7.885861 -0.79048,1.857928 -1.58848,3.712892 -2.38276,5.569275 -1.64132,0.388243 -3.28363,0.773469 -4.926406,1.15566 -8.04512,1.894557 -16.089744,3.792382 -24.139541,5.667019 -0.07883,0.01841 -0.158727,0.03651 -0.23759,0.05493 -0.09038,-1.2878 -0.119485,-2.580283 -0.07294,-3.87526 0.205746,-1.264971 -1.257539,1.464371 -1.70304,1.833869 -0.02124,0.817502 -0.01193,1.632683 0.02331,2.446658 -2.638429,0.608993 -5.290025,1.217561 -7.911417,1.86771 -0.70399,0.174625 -1.403084,0.368875 -2.104558,0.55337 z m 13.163399,-3.799314 c 7.799423,-2.033075 15.634347,-3.917006 23.470353,-5.803113 1.675149,-0.396059 3.350009,-0.794662 5.024899,-1.191753 C 85.314717,-4.283835 81.450524,4.6141 77.538387,13.49061 73.886421,12.5065 70.227051,11.54871 66.553975,10.64471 66.016537,10.52072 65.47867,10.40052 64.940414,10.28079 64.64497,9.49383 64.334295,8.71109 64.000546,7.93638 62.502555,3.35387 61.171446,-1.389477 60.640335,-6.205222 Z M 65.9081,13.05452 c 3.576983,0.78249 7.12482,1.67883 10.657339,2.63538 -0.949962,2.15029 -1.897139,4.30205 -2.852686,6.44975 -1.120479,2.41827 -2.282681,4.81836 -3.528635,7.17456 -0.052,0.0207 -0.115585,0.0503 -0.213518,0.1068 -1.260912,-5.47111 -2.337141,-11.0205 -4.062481,-16.36646 z m 3.418107,17.85296 c 0.09059,-0.23908 0.235741,-0.48581 0.38797,-0.71506 -0.128942,0.23848 -0.257102,0.47762 -0.38797,0.71506 z m 21.20791,-45.818128 c 1.60641,-3.685103 3.2145,-7.369727 4.82265,-11.053586 -0.28108,0.886207 -0.44737,1.94778 0.12181,2.360947 0.45731,2.394191 1.02118,4.75966 1.65342,7.106144 -2.19786,0.535152 -4.39677,1.064443 -6.59787,1.586495 z" />
    </g>
    <path
       id="rect504"
       style="fill:#ff7f2a;stroke-width:0.29264"
       d="M 19.906303,0 V 4.9997 H 54.031309 V 49.70808 L 19.906303,38.06642 v 5.00021 L 64.031219,59.99996 V 0 Z"
       sodipodi:nodetypes="ccccccccc" />
    <path
       id="rect504-3"
       style="fill:#ff7f2a;stroke-width:0.29264"
       d="m 116.49577,0 22.225,4.78758 -22.225,55.21237 10.04021,-3.85299 22.1847,-51.14723 h 11.90005 V 4e-5 Z"
       sodipodi:nodetypes="cccccccc" />
    <path
       id="rect504-7"
       style="fill:#ff7f2a;stroke-width:0.301568"
       d="m 68.137471,0 v 38.99119 5.30997 L 102.26253,31.93831 v 22.7523 H 68.137471 v 5.30943 l 22.284476,5.00023 21.840483,-5.00023 V 21.00885 15.69888 L 78.137378,28.06173 V 5.30942 H 112.26243 V 0 Z"
       sodipodi:nodetypes="cccccccccccccccc" />
  </g>
</svg>
