<?xml version="1.0" encoding="UTF-8" standalone="no"?>
<!-- Created with Inkscape (http://www.inkscape.org/) -->

<svg
   width="551.29303mm"
   height="195.09377mm"
   viewBox="0 0 551.29303 195.09377"
   version="1.1"
   id="svg5"
   xml:space="preserve"
   inkscape:version="1.3.2 (091e20e, 2023-11-25)"
   sodipodi:docname="hyperCell.svg"
   inkscape:export-filename="hyperCell.png"
   inkscape:export-xdpi="25.4"
   inkscape:export-ydpi="25.4"
   xmlns:inkscape="http://www.inkscape.org/namespaces/inkscape"
   xmlns:sodipodi="http://sodipodi.sourceforge.net/DTD/sodipodi-0.dtd"
   xmlns="http://www.w3.org/2000/svg"
   xmlns:svg="http://www.w3.org/2000/svg"><sodipodi:namedview
     id="namedview7"
     pagecolor="#ffffff"
     bordercolor="#000000"
     borderopacity="0.25"
     inkscape:showpageshadow="2"
     inkscape:pageopacity="0.0"
     inkscape:pagecheckerboard="0"
     inkscape:deskcolor="#d1d1d1"
     inkscape:document-units="mm"
     showgrid="false"
     inkscape:zoom="0.10512065"
     inkscape:cx="271.11704"
     inkscape:cy="-470.8875"
     inkscape:window-width="1440"
     inkscape:window-height="768"
     inkscape:window-x="0"
     inkscape:window-y="25"
     inkscape:window-maximized="0"
     inkscape:current-layer="layer1" /><defs
     id="defs2"><rect
       x="-158.91643"
       y="602.87341"
       width="279.15479"
       height="247.20332"
       id="rect1032" /></defs><g
     inkscape:label="Layer 1"
     inkscape:groupmode="layer"
     id="layer1"
     transform="translate(-105.31819,-362.28854)"><path
       id="rect689-2"
       style="fill:#aa87de;fill-opacity:1;stroke-width:2.68267"
       d="m 211.68131,362.28854 c -59.93667,-3.4e-4 -106.36603,43.66891 -106.36312,97.54377 9.5e-4,53.87243 46.42918,97.55048 106.36312,97.54999 H 428.71775 656.61122 V 362.28854 H 428.71775 Z"
       sodipodi:nodetypes="cccccccc" /><g
       aria-label="G"
       transform="matrix(2.0370424,0,0,1.9558955,507.36802,-705.47411)"
       id="text1030"
       style="font-size:74.6667px;font-family:'DIN Alternate';-inkscape-font-specification:'DIN Alternate';white-space:pre;shape-inside:url(#rect1032);fill:#00ff00"><path
         d="m -155.50304,599.60325 h 10.82813 l 8.0573,-7.6198 h -18.88543 z"
         id="path1245"
         sodipodi:nodetypes="ccccc" /><path
         d="m -125.70518,600.71524 -0.0729,14.03646 c -1.89583,0 -3.52431,-0.40104 -4.88542,-1.20312 -1.38541,-0.68056 -2.50347,-1.56771 -3.35416,-2.66146 -1.04514,-1.14237 -1.73785,-2.63716 -2.07813,-4.48438 -0.38889,-1.84723 -0.58333,-5.38369 -0.58333,-10.60938 0,-5.2257 0.19444,-8.78647 0.58333,-10.6823 0.34028,-1.79861 1.03299,-3.2691 2.07813,-4.41146 0.85069,-1.09375 1.96875,-2.0052 3.35416,-2.73437 1.36111,-0.70488 2.98959,-1.0816 4.88542,-1.13022 v -8.0573 c -4.18055,0.0486 -7.6684,1.04513 -10.46354,2.98959 -2.84375,1.92014 -4.90973,4.10764 -6.19792,6.5625 -0.80209,1.28819 -1.39757,2.97743 -1.78646,5.06771 -0.36459,2.09028 -0.54688,6.22223 -0.54688,12.39585 0,6.07638 0.18229,10.18403 0.54688,12.32291 0.19444,1.14237 0.4375,2.09028 0.72917,2.84375 0.31597,0.72917 0.6684,1.49479 1.05729,2.29688 1.28819,2.45487 3.35417,4.61806 6.19792,6.48959 2.79514,1.94444 6.28299,2.96528 10.46354,3.0625 l 0.0729,-29.71356 z"
         id="path1245-6"
         style="font-size:74.6667px;font-family:'DIN Alternate';-inkscape-font-specification:'DIN Alternate';white-space:pre;shape-inside:url(#rect1032);fill:#00ff00"
         sodipodi:nodetypes="cccccsccccccccsccccccc" /><path
         d="m -170.21363,590.87139 0.0729,-14.03646 c 1.89581,-10e-6 3.52432,0.40104 4.88542,1.20313 1.3854,0.68054 2.50348,1.56764 3.35415,2.66145 1.04511,1.14239 1.73784,2.63715 2.07811,4.48436 0.38891,1.84724 0.58335,5.3837 0.58335,10.6094 0,5.22568 -0.19443,8.78647 -0.58333,10.68229 -0.34028,1.79862 -1.03298,3.2691 -2.07814,4.41145 -0.85068,1.09376 -1.96876,2.0052 -3.35416,2.73437 -1.36108,0.70492 -2.98958,1.08161 -4.8854,1.13022 l -2e-5,8.05731 c 4.18057,-0.0486 7.66842,-1.04514 10.46355,-2.98959 2.84374,-1.92015 4.90972,-4.10764 6.19798,-6.56247 0.8021,-1.28815 1.39758,-2.97743 1.78646,-5.06769 0.36458,-2.09028 0.54688,-6.22226 0.54687,-12.39584 -1e-5,-6.0764 -0.18228,-10.18403 -0.54688,-12.32294 -0.19441,-1.14235 -0.43746,-2.09028 -0.72953,-2.84363 -0.31599,-0.72916 -0.66839,-1.49478 -1.05729,-2.29688 -1.28821,-2.45484 -3.35416,-4.61809 -6.19795,-6.48957 -2.79515,-1.94444 -6.283,-2.96526 -10.46352,-3.0625 l -0.0729,29.71356 z"
         id="path1245-6-5"
         style="font-size:74.6667px;font-family:'DIN Alternate';-inkscape-font-specification:'DIN Alternate';white-space:pre;shape-inside:url(#rect1032);fill:#00ff00"
         sodipodi:nodetypes="cccccsccccccccsccccccc" /></g><path
       id="rect689"
       style="fill:#00ff00;fill-opacity:1;stroke-width:1.57268"
       d="m 348.13377,400.003 c -33.58261,-2.1e-4 -59.59705,26.78524 -59.59542,59.83052 5.3e-4,33.04378 26.01434,59.83463 59.59542,59.83433 H 469.73962 597.42868 V 400.003 H 469.73962 Z m -0.20341,14.32158 h 121.80882 v 91.02169 l -121.50639,-0.29053 c -30.37733,8.5e-4 -43.49759,-20.08405 -43.49805,-45.21853 -0.002,-25.13602 12.81654,-45.51352 43.19562,-45.51275 z" /></g></svg>
