<?xml version="1.0" encoding="UTF-8" standalone="no"?>
<!-- Created with Inkscape (http://www.inkscape.org/) -->

<svg
   width="97mm"
   height="65mm"
   viewBox="0 0 97 65"
   version="1.1"
   id="svg5"
   inkscape:version="1.2.1 (9c6d41e410, 2022-07-14)"
   sodipodi:docname="logo.svg"
   xmlns:inkscape="http://www.inkscape.org/namespaces/inkscape"
   xmlns:sodipodi="http://sodipodi.sourceforge.net/DTD/sodipodi-0.dtd"
   xmlns="http://www.w3.org/2000/svg"
   xmlns:svg="http://www.w3.org/2000/svg">
  <sodipodi:namedview
     id="namedview7"
     pagecolor="#ffffff"
     bordercolor="#000000"
     borderopacity="0.25"
     inkscape:showpageshadow="2"
     inkscape:pageopacity="0.0"
     inkscape:pagecheckerboard="0"
     inkscape:deskcolor="#d1d1d1"
     inkscape:document-units="mm"
     showgrid="false"
     inkscape:zoom="0.763461"
     inkscape:cx="396.87685"
     inkscape:cy="247.55685"
     inkscape:window-width="1920"
     inkscape:window-height="1015"
     inkscape:window-x="1920"
     inkscape:window-y="0"
     inkscape:window-maximized="1"
     inkscape:current-layer="layer1" />
  <defs
     id="defs2" />
  <g
     inkscape:label="Layer 1"
     inkscape:groupmode="layer"
     id="layer1">
    <path
       id="rect111"
       style="fill:#666666;stroke-width:0.264583"
       d="M 0.31085538,0 H 74.976039 L 64.936398,11.112507 H 10.350501 Z"
       sodipodi:nodetypes="ccccc" />
    <path
       id="rect111-5"
       style="fill:#666666;stroke-width:0.264583"
       d="M 74.976039,0 37.643446,64.661941 33.039553,50.411109 60.332503,3.138334 Z"
       sodipodi:nodetypes="ccccc" />
    <path
       id="rect111-5-6"
       style="fill:#666666;stroke-width:0.264583"
       d="m 37.643446,64.661941 -22.515915,-24.97443 14.643524,3.138325 12.476279,7.585278 z"
       sodipodi:nodetypes="ccccc" />
    <path
       style="fill:#ff7f2a;stroke-width:0.468542"
       id="path687"
       d="m 25.410843,41.365238 c 8.092718,0.70966 16.092518,-0.95046 23.969768,-2.586392 7.17446,-1.921095 16.75142,-3.94065 21.37178,-10.459086 0.66544,-0.938828 1.05787,-2.043958 1.58681,-3.065928 1.912243,-5.17523 1.693393,-10.687369 1.789273,-16.103916 0.28626,-1.7977 0.64986,-1.697044 -5.593993,-3.070444 -0.54463,-0.119888 0.43133,1.029249 0.61618,1.555375 0.43159,1.228489 1.17336,3.771726 1.51887,4.927237 1.70378,5.940885 2.920103,12.062009 2.63904,18.272898 -0.0629,1.390966 -0.25867,2.772742 -0.38799,4.159104 -1.07244,5.555032 -3.5058,10.758342 -8.0579,14.319532 -3.05034,2.386323 -4.70081,2.739313 -8.29679,4.180713 -8.55358,2.57867 -17.57833,3.06297 -26.435545,2.2474 -1.38982,-0.24072 -2.831389,-0.40251 -4.160629,-0.92061 -0.432808,-0.16876 -1.634734,-0.88326 -1.226594,-0.66144 1.726786,0.93672 3.453573,1.87346 5.180361,2.81018 -0.09549,-0.19192 -0.272523,-0.36187 -0.286472,-0.5758 -0.01558,-0.23806 0.136127,-0.45731 0.204197,-0.68595 0.248816,-0.28888 0.463837,-0.61072 0.746446,-0.86664 2.851751,-2.58248 8.03968,-3.05885 11.658026,-3.591563 6.52609,-0.90127 13.11077,-0.54369 19.61989,0.27374 2.79153,0.382283 5.38124,1.515923 8.08008,2.245203 0.65965,0.17824 3.15408,0.74051 3.816483,0.89167 4.42983,0.90638 8.93144,1.09509 13.41743,0.61068 4.083211,-0.75761 5.848431,-2.11663 7.948031,-5.605993 0.87725,-1.66092 0.4753,-0.8401 1.21365,-2.45861 0,0 -6.05654,-3.41401 -6.05654,-3.41401 v 0 c -0.6919,1.57974 -0.31132,0.77871 -1.15056,2.3989 -1.934531,3.23518 -3.772011,4.5041 -7.555311,5.0969 -4.45305,0.427013 -8.915143,0.17691 -13.291033,-0.79841 -1.2527,-0.29319 -2.55241,-0.58232 -3.79133,-0.9321 -2.68346,-0.75762 -5.30132,-1.78398 -8.09441,-2.10279 -6.53323,-0.72409 -13.13159,-0.99477 -19.666277,-0.0854 -3.910279,0.58713 -9.060406,1.03187 -12.105058,3.88609 -0.340914,0.319593 -0.603451,0.713633 -0.905179,1.070463 -0.137154,0.35344 -0.361393,0.68455 -0.411452,1.06036 -0.376104,2.8236 4.398762,3.66098 6.8577,5.09895 1.61327,0.94343 3.626726,0.97463 5.404476,1.27954 8.88501,0.59935 17.90973,0.0267 26.45778,-2.61095 3.71701,-1.52224 5.3417,-1.86858 8.48815,-4.36565 4.641343,-3.683453 7.150653,-9.027293 8.295863,-14.717258 0.14149,-1.403912 0.34875,-2.802759 0.42451,-4.211753 0.33563,-6.24195 -0.79367,-12.389602 -2.43532,-18.38556 -0.0646,-0.229346 -1.24577,-4.431819 -1.39244,-4.9164 -0.16044,-0.530217 -0.0932,-1.222805 -0.51709,-1.579423 C 72.923161,7.31702 70.699271,5.95846 68.448331,4.696998 c -0.17408,-0.09757 -0.33969,0.250401 -0.40875,0.437706 -0.10112,0.274113 -0.0498,0.582209 -0.0747,0.873323 0.0738,5.343977 0.33628,10.775612 -1.47841,15.906039 -0.492,0.972775 -0.85163,2.024726 -1.47602,2.918326 -4.41696,6.321303 -13.96893,8.455309 -20.89887,10.277518 -2.11234,0.420742 -4.21327,0.903517 -6.337026,1.26226 -5.939529,1.003287 -11.985094,1.487603 -17.989478,0.827245 0,0 5.625783,4.165813 5.625783,4.165813 z" />
  </g>
</svg>
