<?xml version="1.0" encoding="UTF-8" standalone="no"?>
<!-- Created with Inkscape (http://www.inkscape.org/) -->

<svg
   width="210mm"
   height="297mm"
   viewBox="0 0 210 297"
   version="1.1"
   id="svg5"
   inkscape:version="1.1.2 (0a00cf5339, 2022-02-04)"
   sodipodi:docname="gymflow.svg"
   xmlns:inkscape="http://www.inkscape.org/namespaces/inkscape"
   xmlns:sodipodi="http://sodipodi.sourceforge.net/DTD/sodipodi-0.dtd"
   xmlns="http://www.w3.org/2000/svg"
   xmlns:svg="http://www.w3.org/2000/svg">
  <sodipodi:namedview
     id="namedview7"
     pagecolor="#ffffff"
     bordercolor="#666666"
     borderopacity="1.0"
     inkscape:pageshadow="2"
     inkscape:pageopacity="0.0"
     inkscape:pagecheckerboard="0"
     inkscape:document-units="mm"
     showgrid="false"
     inkscape:object-paths="true"
     inkscape:snap-intersection-paths="true"
     inkscape:snap-smooth-nodes="true"
     inkscape:snap-midpoints="true"
     inkscape:zoom="1.0985948"
     inkscape:cx="253.05053"
     inkscape:cy="346.80667"
     inkscape:window-width="1920"
     inkscape:window-height="1002"
     inkscape:window-x="0"
     inkscape:window-y="0"
     inkscape:window-maximized="1"
     inkscape:current-layer="g3562"
     inkscape:snap-object-midpoints="true" />
  <defs
     id="defs2" />
  <g
     inkscape:label="Layer 1"
     inkscape:groupmode="layer"
     id="layer1">
    <g
       id="g333"
       transform="translate(-2.9795828,88.152184)">
      <g
         aria-label="edisys"
         id="text24174"
         style="font-size:8.27246px;line-height:1.25;font-family:FreeMono;-inkscape-font-specification:FreeMono;fill:#76baff;fill-opacity:1;stroke-width:0.206812"
         transform="matrix(0.39572316,0,0,0.39572316,-24.492185,139.62486)">
        <path
           d="m 73.824941,171.67438 h -3.441343 q 0.091,0.65353 0.545982,1.05061 0.454986,0.3888 1.125055,0.3888 0.388805,0 0.794156,-0.12409 0.40535,-0.12408 0.653524,-0.32262 0.08273,-0.0579 0.13236,-0.0579 0.06618,0 0.107542,0.0496 0.04963,0.0496 0.04963,0.11581 0,0.21508 -0.595617,0.44671 -0.587344,0.23163 -1.149872,0.23163 -0.835518,0 -1.422863,-0.56253 -0.579072,-0.56252 -0.579072,-1.36495 0,-0.7528 0.545982,-1.25742 0.545983,-0.51289 1.340139,-0.51289 0.835518,0 1.364956,0.52944 0.529437,0.52116 0.529437,1.38977 z m -3.441343,-0.33917 h 3.0939 q -0.09927,-0.56253 -0.521165,-0.9017 -0.421896,-0.33917 -1.025785,-0.33917 -0.60389,0 -1.017513,0.33917 -0.413623,0.3309 -0.529437,0.9017 z"
           id="path25748"
           style="fill:#76baff;fill-opacity:1" />
        <path
           d="m 78.639516,168.32404 v 4.65739 h 0.446713 q 0.223356,0 0.223356,0.16545 0,0.17372 -0.223356,0.17372 h -0.785884 v -0.73625 q -0.587345,0.86861 -1.505588,0.86861 -0.736249,0 -1.265686,-0.54598 -0.521165,-0.54598 -0.521165,-1.30705 0,-0.76107 0.521165,-1.29878 0.529437,-0.54598 1.265686,-0.54598 0.909971,0 1.505588,0.86034 v -1.9523 h -0.446713 q -0.223356,0 -0.223356,-0.17372 0,-0.16545 0.223356,-0.16545 z m -1.819941,1.7703 q -0.612162,0 -1.04233,0.43844 -0.430168,0.43844 -0.430168,1.06715 0,0.63698 0.430168,1.07542 0.430168,0.43844 1.050602,0.43844 0.612162,0 1.04233,-0.43844 0.430168,-0.43844 0.430168,-1.05887 0,-0.64526 -0.430168,-1.0837 -0.421895,-0.43844 -1.050602,-0.43844 z"
           id="path25750"
           style="fill:#76baff;fill-opacity:1" />
        <path
           d="m 82.097407,169.87099 v 3.11044 h 1.323594 q 0.231629,0 0.231629,0.16545 0,0.17372 -0.231629,0.17372 h -2.986358 q -0.223357,0 -0.223357,-0.17372 0,-0.16545 0.223357,-0.16545 h 1.323593 v -2.77127 h -0.97615 q -0.223356,0 -0.223356,-0.17372 0,-0.16545 0.223356,-0.16545 z m -0.01655,-1.7124 v 0.86033 h -0.488075 v -0.86033 z"
           id="path25752"
           style="fill:#76baff;fill-opacity:1" />
        <path
           d="m 88.152851,172.35272 q 0,-0.30608 -0.281264,-0.47153 -0.281263,-0.16544 -0.678341,-0.22335 -0.397078,-0.0579 -0.794156,-0.12409 -0.397079,-0.0662 -0.678342,-0.27299 -0.281264,-0.20681 -0.281264,-0.5708 0,-0.40535 0.397078,-0.67007 0.405351,-0.26472 1.017513,-0.26472 0.703159,0 1.133327,0.38054 v -0.0331 q 0,-0.23163 0.173722,-0.23163 0.165449,0 0.165449,0.23163 v 0.5708 q 0,0.22335 -0.165449,0.22335 -0.148905,0 -0.173722,-0.19026 -0.03309,-0.28127 -0.330899,-0.44672 -0.297808,-0.16545 -0.769338,-0.16545 -0.463258,0 -0.769339,0.182 -0.306081,0.17372 -0.306081,0.43844 0,0.24817 0.281264,0.38053 0.281263,0.13236 0.678341,0.19027 0.397078,0.0496 0.794156,0.13236 0.397078,0.0745 0.678342,0.31435 0.281264,0.23163 0.281264,0.62871 0,0.47153 -0.463258,0.78588 -0.454985,0.30608 -1.158144,0.30608 -0.794157,0 -1.298777,-0.44671 v 0.091 q 0,0.22335 -0.165449,0.22335 -0.173721,0 -0.173721,-0.22335 v -0.68662 q 0,-0.22335 0.173721,-0.22335 0.165449,0 0.165449,0.18199 v 0.0579 q 0,0.28126 0.372261,0.48807 0.372261,0.19854 0.901698,0.19854 0.545983,0 0.909971,-0.21508 0.363988,-0.21509 0.363988,-0.54599 z"
           id="path25754"
           style="fill:#76baff;fill-opacity:1" />
        <path
           d="m 91.710012,173.3206 -1.555223,-3.11044 H 90.02243 q -0.223356,0 -0.223356,-0.17372 0,-0.16545 0.223356,-0.16545 h 0.951333 q 0.223356,0 0.223356,0.16545 0,0.17372 -0.223356,0.17372 h -0.430168 l 1.356683,2.73818 1.331867,-2.73818 h -0.446713 q -0.223357,0 -0.223357,-0.17372 0,-0.16545 0.223357,-0.16545 h 0.90997 q 0.223357,0 0.223357,0.16545 0,0.17372 -0.223357,0.17372 h -0.115814 l -2.11775,4.30995 h 0.53771 q 0.223356,0 0.223356,0.16545 0,0.17372 -0.223356,0.17372 h -1.927483 q -0.223357,0 -0.223357,-0.17372 0,-0.16545 0.223357,-0.16545 h 1.050602 z"
           id="path25756"
           style="fill:#76baff;fill-opacity:1" />
        <path
           d="m 98.079808,172.35272 q 0,-0.30608 -0.281263,-0.47153 -0.281264,-0.16544 -0.678342,-0.22335 -0.397078,-0.0579 -0.794156,-0.12409 -0.397078,-0.0662 -0.678342,-0.27299 -0.281264,-0.20681 -0.281264,-0.5708 0,-0.40535 0.397078,-0.67007 0.405351,-0.26472 1.017513,-0.26472 0.703159,0 1.133327,0.38054 v -0.0331 q 0,-0.23163 0.173722,-0.23163 0.165449,0 0.165449,0.23163 v 0.5708 q 0,0.22335 -0.165449,0.22335 -0.148905,0 -0.173722,-0.19026 -0.03309,-0.28127 -0.330898,-0.44672 -0.297809,-0.16545 -0.769339,-0.16545 -0.463258,0 -0.769339,0.182 -0.306081,0.17372 -0.306081,0.43844 0,0.24817 0.281264,0.38053 0.281263,0.13236 0.678341,0.19027 0.397078,0.0496 0.794157,0.13236 0.397078,0.0745 0.678341,0.31435 0.281264,0.23163 0.281264,0.62871 0,0.47153 -0.463258,0.78588 -0.454985,0.30608 -1.158144,0.30608 -0.794156,0 -1.298776,-0.44671 v 0.091 q 0,0.22335 -0.16545,0.22335 -0.173721,0 -0.173721,-0.22335 v -0.68662 q 0,-0.22335 0.173721,-0.22335 0.16545,0 0.16545,0.18199 v 0.0579 q 0,0.28126 0.37226,0.48807 0.372261,0.19854 0.901698,0.19854 0.545983,0 0.909971,-0.21508 0.363988,-0.21509 0.363988,-0.54599 z"
           id="path25758"
           style="fill:#76baff;fill-opacity:1" />
      </g>
      <g
         id="g3562"
         inkscape:export-filename="/home/kapn/Desktop/School/ENTR2301/gflow.png"
         inkscape:export-xdpi="96"
         inkscape:export-ydpi="96">
        <path
           id="path335-5-1"
           style="fill:#76baff;fill-opacity:1;stroke-width:0.264583"
           d="m 33.11376,-19.119872 -7.33164,-39.985474 22.766191,-0.0165 7.331634,39.985473 z m 2.953072,-3.679887 15.757526,0.01796 -5.598625,-32.543747 H 30.65769 l 3.96876,23.547915 9.117695,-0.0134 1.175514,6.263193 -5.311585,0.06967 -0.548984,-2.08023 -3.67488,0.06935 z m 3.721284,-18.243483 -1.778704,-10.318753 5.940997,-0.238851 2.017659,10.542626 z"
           sodipodi:nodetypes="ccccccccccccccccccccc"
           inkscape:export-filename="/home/kapn/Desktop/projects/me/images/gymflow/gflow.png"
           inkscape:export-xdpi="96"
           inkscape:export-ydpi="96" />
        <path
           id="rect4103"
           style="fill:#999999;stroke-width:1.37079"
           d="m 48.548309,-63.865623 h 22.975823 v 3.981461 l -15.045058,0.104923 -0.0665,5.955842 12.160417,0.0067 -0.03215,4.286576 -12.182163,0.077 0.204365,30.223684 -6.083071,-33.347314 3.593113,-0.07839 0.0182,-7.128857 -28.693548,0.0027 -0.955899,-4.140581 z"
           sodipodi:nodetypes="ccccccccccccccc"
           inkscape:export-filename="/home/kapn/Desktop/projects/me/images/gymflow/gflow.png"
           inkscape:export-xdpi="96"
           inkscape:export-ydpi="96" />
        <text
           xml:space="preserve"
           style="font-style:normal;font-weight:normal;font-size:6.61376px;line-height:1.25;font-family:sans-serif;fill:#76baff;fill-opacity:1;stroke:none;stroke-width:0.165344"
           x="19.272444"
           y="61.690884"
           id="text13292"
           transform="rotate(-90)"
           inkscape:export-filename="/home/kapn/Desktop/projects/me/images/gymflow/gflow.png"
           inkscape:export-xdpi="96"
           inkscape:export-ydpi="96"><tspan
             sodipodi:role="line"
             id="tspan13290"
             style="font-style:normal;font-variant:normal;font-weight:normal;font-stretch:normal;font-family:'SCREAM.hot';-inkscape-font-specification:'SCREAM.hot';fill:#76baff;fill-opacity:1;stroke-width:0.165344"
             x="19.272444"
             y="61.690884">Gymflo.</tspan></text>
      </g>
    </g>
    <path
       style="fill:#000000;stroke-width:0.264583"
       id="path41"
       d="" />
    <path
       style="fill:#000000;stroke-width:0.264583"
       id="path21"
       d="" />
  </g>
</svg>
